<svg xmlns="http://www.w3.org/2000/svg" version="1.1" xmlns:xlink="http://www.w3.org/1999/xlink" xmlns:svgjs="http://svgjs.dev/svgjs" viewBox="0 0 14.901755902045632 5.828065511967694"><g transform="matrix(0.7713621147583147,0,0,0.7713621147583147,2.369811264768904,2.1600744989397667)"><rect width="16.629241019880077" height="16.629241019880077" x="-1.7274851178344441" y="-7.337183009940038" fill="#225777"></rect><g clip-path="url(#SvgjsClipPath4162)"><g clip-path="url(#b681acd2d-61d5-4f6e-bd5d-5a7213a32c856c972a9e-e888-4155-ab0d-7bc2ce73bf8b)"><path d=" M 10.882146796731657 2.373657629425775 C 10.87290805952254 2.3226265067370035 10.864269221139603 2.271488596574701 10.856232070295675 2.2202544872879395 L 10.637725030180798 2.5899074764458607 L 10.724659209946116 2.6400924029201778 Z" fill="#ffffff" transform="matrix(1,0,0,1,0,0)" fill-rule="nonzero"></path></g><g clip-path="url(#b681acd2d-61d5-4f6e-bd5d-5a7213a32c856c972a9e-e888-4155-ab0d-7bc2ce73bf8b)"><path d=" M 12.794473032259196 -0.27143947298119764 L 11.99439481700063 1.0821024891215592 C 11.993806871983642 1.1044050952815372 11.993118958605686 1.1267049539502798 11.992331097599669 1.1490013930360297 C 12.037367733618073 1.118477451464896 12.082077038749743 1.087473314800019 12.126451361584623 1.0559942889918603 L 12.881407212024516 -0.22124379796833404 Z" fill="#ffffff" transform="matrix(1,0,0,1,0,0)" fill-rule="nonzero"></path></g><g clip-path="url(#b681acd2d-61d5-4f6e-bd5d-5a7213a32c856c972a9e-e888-4155-ab0d-7bc2ce73bf8b)"><path d=" M 11.995340688392735 0.686857229684082 C 11.996630513018333 0.7455012559946137 11.99735066510096 0.8048009431564911 11.99735066510096 0.864767039708261 C 11.99735066510096 0.8701413089815868 11.997286173869679 0.8754618355621795 11.997264676792586 0.8808361048355056 L 12.70791505134301 -0.32142017722312843 L 12.620991620116238 -0.37160510369744537 Z" fill="#ffffff" transform="matrix(1,0,0,1,0,0)" fill-rule="nonzero"></path></g><g clip-path="url(#b681acd2d-61d5-4f6e-bd5d-5a7213a32c856c972a9e-e888-4155-ab0d-7bc2ce73bf8b)"><path d=" M 11.946488580698203 -0.017978185512604217 C 11.947703165553975 -0.007810068047471752 11.948917750409747 0.002272061109287682 11.950067844034239 0.01214996803366053 C 11.95529163376791 0.056842391310638396 11.960117727575359 0.10240544620989511 11.964524628379484 0.14877464150015052 L 12.360887735825813 -0.5217836842712632 L 12.273953556060494 -0.57196861074558 Z" fill="#ffffff" transform="matrix(1,0,0,1,0,0)" fill-rule="nonzero"></path></g><g clip-path="url(#b681acd2d-61d5-4f6e-bd5d-5a7213a32c856c972a9e-e888-4155-ab0d-7bc2ce73bf8b)"><path d=" M 11.978723447799611 0.3212241939426306 C 11.982913228614494 0.3810776977666228 11.986370933687443 0.44098019870917393 11.989095787497131 0.5009182613655625 L 12.534390645045866 -0.4216180535550158 L 12.447467213819092 -0.471792231490786 Z" fill="#ffffff" transform="matrix(1,0,0,1,0,0)" fill-rule="nonzero"></path></g><g clip-path="url(#b681acd2d-61d5-4f6e-bd5d-5a7213a32c856c972a9e-e888-4155-ab0d-7bc2ce73bf8b)"><path d=" M 11.465534474889726 1.7803920443433339 C 11.437482626978767 1.7620846603693314 11.409553714532693 1.7435895935256314 11.381749616918471 1.7249080883654475 L 11.01767511926639 2.340831592704301 C 11.02637068695063 2.3905435834825646 11.035625178639297 2.441169200037294 11.045288114792736 2.4913648750501576 Z" fill="#ffffff" transform="matrix(1,0,0,1,0,0)" fill-rule="nonzero"></path></g><g clip-path="url(#b681acd2d-61d5-4f6e-bd5d-5a7213a32c856c972a9e-e888-4155-ab0d-7bc2ce73bf8b)"><path d=" M 10.925517149767398 1.5128609199171725 L 10.973520122916744 1.4316557111972186 C 10.955817166378798 1.4180794777629835 10.938171492293508 1.4044287126330444 10.920583570574474 1.390703779334467 C 10.92191638935427 1.431827687813965 10.923571664290453 1.472543151828682 10.925517149767398 1.5128609199171725" fill="#ffffff" transform="matrix(1,0,0,1,0,0)" fill-rule="nonzero"></path></g><g clip-path="url(#b681acd2d-61d5-4f6e-bd5d-5a7213a32c856c972a9e-e888-4155-ab0d-7bc2ce73bf8b)"><path d=" M 11.901215736339706 -0.33510306679301605 C 11.90999641773409 -0.2831299163892441 11.91808004486178 -0.23104140240200377 11.925464439300946 -0.17885156194038299 L 12.187374078067215 -0.6219600635260569 L 12.100439898301897 -0.6721449900003738 Z" fill="#ffffff" transform="matrix(1,0,0,1,0,0)" fill-rule="nonzero"></path></g><g clip-path="url(#b681acd2d-61d5-4f6e-bd5d-5a7213a32c856c972a9e-e888-4155-ab0d-7bc2ce73bf8b)"><path d=" M 11.13494167481036 1.5522435651521045 C 11.13313592033452 1.5509214949108663 11.13130866878159 1.549631670285268 11.129502914305753 1.5482988515054834 C 11.104143487446574 1.529795059340422 11.078898274368315 1.5111352424639564 11.053768711706015 1.4923204627545 L 10.936254939775502 1.6911361802519376 C 10.940511361039976 1.7497479609468298 10.945401946078704 1.8072418936328694 10.950915946353135 1.8635642356173245 Z" fill="#ffffff" transform="matrix(1,0,0,1,0,0)" fill-rule="nonzero"></path></g><g clip-path="url(#b681acd2d-61d5-4f6e-bd5d-5a7213a32c856c972a9e-e888-4155-ab0d-7bc2ce73bf8b)"><path d=" M 11.29894287595517 1.6684997580726892 C 11.271331790174715 1.6494353907093462 11.243840074942451 1.6301987141705716 11.216469339686718 1.610790854615721 L 10.969403432653376 2.0287692730793614 C 10.976352332814225 2.0817247216860917 10.983970071853197 2.134590254038392 10.992254825603567 2.1873532107967164 Z" fill="#ffffff" transform="matrix(1,0,0,1,0,0)" fill-rule="nonzero"></path></g><g clip-path="url(#b681acd2d-61d5-4f6e-bd5d-5a7213a32c856c972a9e-e888-4155-ab0d-7bc2ce73bf8b)"><path d=" M 11.581360726268445 1.584446186637873 C 11.565535801685964 1.5935902134750606 11.549681625985539 1.6026835237412023 11.533798443199473 1.611725977469297 C 11.54134391725926 1.6167347964320147 11.548878642780464 1.6217006212405676 11.556413368301666 1.626666446049121 Z" fill="#ffffff" transform="matrix(1,0,0,1,0,0)" fill-rule="nonzero"></path></g><g clip-path="url(#b681acd2d-61d5-4f6e-bd5d-5a7213a32c856c972a9e-e888-4155-ab0d-7bc2ce73bf8b)"><path d=" M 11.760528115302582 1.4777884386394482 L 11.64028421458119 1.681193782096285 C 11.668473847850228 1.6992448430981333 11.69678253441076 1.717109304709425 11.725208417638195 1.7347859952898337 L 11.946682054392044 1.3601134386307052 C 11.885171557093813 1.400187513882066 11.823114409669396 1.439416202028179 11.760528115302543 1.4777884386394726" fill="#ffffff" transform="matrix(1,0,0,1,0,0)" fill-rule="nonzero"></path></g><g clip-path="url(#b681acd2d-61d5-4f6e-bd5d-5a7213a32c856c972a9e-e888-4155-ab0d-7bc2ce73bf8b)"><path d=" M 11.896927069459592 1.8380149594919333 L 12.342174530216093 1.0847466296040347 C 12.27541424563393 1.1344851023835019 12.207814106036514 1.1830862523098093 12.13940335053351 1.230529057912273 L 11.810519568083059 1.7869379043182443 C 11.839193261565452 1.8041805584051254 11.867996581061899 1.821206727611135 11.896927069459519 1.8380149594918893" fill="#ffffff" transform="matrix(1,0,0,1,0,0)" fill-rule="nonzero"></path></g><g clip-path="url(#b681acd2d-61d5-4f6e-bd5d-5a7213a32c856c972a9e-e888-4155-ab0d-7bc2ce73bf8b)"><path d=" M 10.277358778327207 -0.34385237716999106 C 10.30858140428491 -0.3310206098670171 10.339667904682058 -0.31786008474498717 10.37061309875803 -0.3043729950881081 L 10.534259598130728 -0.5812445995113407 L 10.357274162421561 -0.47905824354832294 Z" fill="#ffffff" transform="matrix(1,0,0,1,0,0)" fill-rule="nonzero"></path></g><g clip-path="url(#b681acd2d-61d5-4f6e-bd5d-5a7213a32c856c972a9e-e888-4155-ab0d-7bc2ce73bf8b)"><path d=" M 10.38613398841932 -0.13414839012481572 L 9.617892944335937 1.165543393859216 L 9.617892944335937 1.3627898247288215 L 10.478420940380873 -0.09305672726096625 C 10.447756252938534 -0.10697217009075655 10.41699316038154 -0.12066973622695243 10.386133988419413 -0.1341483901247742" fill="#ffffff" transform="matrix(1,0,0,1,0,0)" fill-rule="nonzero"></path></g><g clip-path="url(#b681acd2d-61d5-4f6e-bd5d-5a7213a32c856c972a9e-e888-4155-ab0d-7bc2ce73bf8b)"><path d=" M 11.841281885403577 -0.6273880754921166 C 11.852990002936615 -0.5799986461796973 11.863701492291483 -0.5323685340968757 11.873409267119518 -0.48452924966856825 L 12.013860420308616 -0.7221364427808514 L 11.926936989081844 -0.7723213692551683 Z" fill="#ffffff" transform="matrix(1,0,0,1,0,0)" fill-rule="nonzero"></path></g><g clip-path="url(#b681acd2d-61d5-4f6e-bd5d-5a7213a32c856c972a9e-e888-4155-ab0d-7bc2ce73bf8b)"><path d=" M 10.551145552187519 2.5399160236653833 L 10.833262443421486 2.06263791803986 C 10.828103144919092 2.024136652965754 10.823470524805487 1.9873014113663792 10.81943982285049 1.9528200997087204 C 10.817350709437473 1.9348789900895738 10.815340713190704 1.916928756228045 10.81340989272584 1.8989699215901648 L 10.464222120960745 2.48972034865252 Z" fill="#ffffff" transform="matrix(1,0,0,1,0,0)" fill-rule="nonzero"></path></g><g clip-path="url(#b681acd2d-61d5-4f6e-bd5d-5a7213a32c856c972a9e-e888-4155-ab0d-7bc2ce73bf8b)"><path d=" M 10.095375272193845 1.34241059564437 C 10.078769973910973 1.3572913755047673 10.062266995769951 1.3722859398817047 10.045867503648108 1.3873932294619813 L 10.035688637644288 1.3967982006904274 C 10.029113058660785 1.4029157986990142 10.022549272272654 1.4090460598944787 10.015997315026937 1.415188950143643 L 10.007226507572755 1.4234545762861237 C 10.000839799630016 1.4294849368371247 9.994473047165544 1.4355363971142752 9.988126354575495 1.4416088578912856 L 9.979237313197274 1.4501539460360062 C 9.963824882323134 1.4649991304199417 9.948532794470383 1.4799687515653943 9.93336255068018 1.4950613400839026 L 9.926644714088507 1.5017899252141214 C 9.921185154135001 1.5072688934715819 9.915739211139686 1.5127614136109369 9.910306935497664 1.518267434806071 L 9.903019426362967 1.5256624293262346 C 9.896149935109081 1.5326914196119552 9.889303080604703 1.5397424974061011 9.882478969200378 1.5468155531859815 L 9.879920817026212 1.5494919392841617 C 9.873364208512754 1.5563280097998322 9.866904336846217 1.5631425832384092 9.860498207872412 1.5699249110613462 L 9.854081330360062 1.5767502330384704 C 9.848760803779468 1.5824577070067423 9.843472522814517 1.5881329353593743 9.83825948161939 1.5937759180963664 L 9.833261411195197 1.5992146786009722 C 9.827239828159135 1.605786017180526 9.821249242838265 1.6123856931141645 9.815289854745162 1.6190134866039423 L 9.617903692874483 1.9529705792483734 L 9.617903692874483 2.00110253486028 L 9.683609509010166 2.0390556244685074 L 10.09539676927094 1.3423890985672764 L 10.095375272193845 1.34241059564437" fill="#ffffff" transform="matrix(1,0,0,1,0,0)" fill-rule="nonzero"></path></g><g clip-path="url(#b681acd2d-61d5-4f6e-bd5d-5a7213a32c856c972a9e-e888-4155-ab0d-7bc2ce73bf8b)"><path d=" M 10.199797324174567 -0.212634218592467 L 9.617903692874483 0.7718244268953636 L 9.617903692874483 0.9690708577649687 L 10.29349233468573 -0.17388573713178745 C 10.26234384641394 -0.18700212408592332 10.231111533564615 -0.19991855035893247 10.199797324174575 -0.21263421859246334" fill="#ffffff" transform="matrix(1,0,0,1,0,0)" fill-rule="nonzero"></path></g><g clip-path="url(#b681acd2d-61d5-4f6e-bd5d-5a7213a32c856c972a9e-e888-4155-ab0d-7bc2ce73bf8b)"><path d=" M 11.804360655495827 -0.7614008540917694 L 11.840357511088564 -0.822302073497098 L 11.770201799994569 -0.8628133152794283 C 11.782548617823814 -0.8293403326878651 11.793939521714773 -0.7955224666679777 11.804360655495827 -0.7614008540917667" fill="#ffffff" transform="matrix(1,0,0,1,0,0)" fill-rule="nonzero"></path></g><g clip-path="url(#b681acd2d-61d5-4f6e-bd5d-5a7213a32c856c972a9e-e888-4155-ab0d-7bc2ce73bf8b)"><path d=" M 11.168111664765327 0.11775435925451316 C 11.196208344526273 0.13538196247102197 11.224434006749782 0.15337501599811687 11.252799399974394 0.17172277129725155 L 11.691275281446504 -0.5700768679613697 C 11.681535483820618 -0.6184454008645325 11.671183811926362 -0.6666887066396241 11.660222753585229 -0.7147951909534845 Z" fill="#ffffff" transform="matrix(1,0,0,1,0,0)" fill-rule="nonzero"></path></g><g clip-path="url(#b681acd2d-61d5-4f6e-bd5d-5a7213a32c856c972a9e-e888-4155-ab0d-7bc2ce73bf8b)"><path d=" M 10.822535401951928 -0.085038317505164 C 10.830446326322264 -0.0807496506250499 10.838314256538412 -0.07647173228348247 10.846053204292001 -0.07220456248046192 C 10.867544295564327 -0.060361445026438254 10.888962948477978 -0.04838735033968389 10.910307967723833 -0.03628294665758047 L 11.493340944109914 -1.0226440834681392 L 11.406417512883142 -1.0728397584810028 Z" fill="#ffffff" transform="matrix(1,0,0,1,0,0)" fill-rule="nonzero"></path></g><g clip-path="url(#b681acd2d-61d5-4f6e-bd5d-5a7213a32c856c972a9e-e888-4155-ab0d-7bc2ce73bf8b)"><path d=" M 10.887553311620623 -0.7852088669726037 L 10.710567875911456 -0.6830225110095859 L 10.462545348947469 -0.2634210632253965 C 10.493135381279695 -0.24947944184532045 10.523615591313717 -0.23529810044239696 10.553983166363796 -0.2208783476577667 Z" fill="#ffffff" transform="matrix(1,0,0,1,0,0)" fill-rule="nonzero"></path></g><g clip-path="url(#b681acd2d-61d5-4f6e-bd5d-5a7213a32c856c972a9e-e888-4155-ab0d-7bc2ce73bf8b)"><path d=" M 11.240836276571972 -0.9891731344338663 L 11.063840092324257 -0.8869867784708485 L 10.64427089015571 -0.17714254431142284 C 10.674327522320624 -0.16228716335182736 10.704256138127404 -0.14717416185859267 10.734053432635898 -0.13180520872164203 Z" fill="#ffffff" transform="matrix(1,0,0,1,0,0)" fill-rule="nonzero"></path></g><g clip-path="url(#b681acd2d-61d5-4f6e-bd5d-5a7213a32c856c972a9e-e888-4155-ab0d-7bc2ce73bf8b)"><path d=" M 12.967997438556342 -0.1712523451878576 L 12.33210314959788 0.9045366323308726 C 12.336295079631075 0.90133356784397 12.340530003818454 0.8981305033570677 12.34468968823601 0.8949381874087123 C 12.406343305339604 0.8475371324179783 12.48057271254278 0.7857975270060109 12.559585219399217 0.7169316405376134 L 13.054920869783114 -0.12106741871354065 Z" fill="#ffffff" transform="matrix(1,0,0,1,0,0)" fill-rule="nonzero"></path></g><g clip-path="url(#b681acd2d-61d5-4f6e-bd5d-5a7213a32c856c972a9e-e888-4155-ab0d-7bc2ce73bf8b)"><path d=" M 10.018104028581966 -0.28324136830542146 L 10.003980448931665 -0.27509397608705943 L 9.617892944335937 0.37808396285441814 L 9.617892944335937 0.5753518908011175 L 10.105758360429911 -0.25001763565772095 C 10.076644958284636 -0.2613665199934352 10.047425557742889 -0.27244158646486927 10.018104028581973 -0.28324136830541913" fill="#ffffff" transform="matrix(1,0,0,1,0,0)" fill-rule="nonzero"></path></g><g clip-path="url(#b681acd2d-61d5-4f6e-bd5d-5a7213a32c856c972a9e-e888-4155-ab0d-7bc2ce73bf8b)"><path d=" M 11.57993117064174 -0.9726633792262092 L 10.996908942794258 0.013697757584378412 C 11.025752772613194 0.03064688890386047 11.054466541807361 0.04781639002420657 11.083047730707118 0.06520475429992922 L 11.626149886392342 -0.8535803206678549 C 11.616334595787754 -0.8907822837886096 11.605662038364095 -0.9277527681346363 11.59414073860041 -0.9644622443151243 Z" fill="#ffffff" transform="matrix(1,0,0,1,0,0)" fill-rule="nonzero"></path></g><g clip-path="url(#b681acd2d-61d5-4f6e-bd5d-5a7213a32c856c972a9e-e888-4155-ab0d-7bc2ce73bf8b)"><path d=" M 12.160653211240238 1.98200238186288 C 12.190532120875567 1.9972394629109562 12.220528608992309 2.012244872876666 12.250639975952977 2.0270172612963426 L 13.174261893266587 0.4644484700767646 L 13.174261893266587 0.31919272015731326 C 13.143338347867871 0.3593815057832439 13.108437843206893 0.40064514526384 13.070710472908146 0.4423602233633954 Z" fill="#ffffff" transform="matrix(1,0,0,1,0,0)" fill-rule="nonzero"></path></g><g clip-path="url(#b681acd2d-61d5-4f6e-bd5d-5a7213a32c856c972a9e-e888-4155-ab0d-7bc2ce73bf8b)"><path d=" M 12.809854190919456 0.4899655005865158 C 12.914727681519135 0.39128316818970643 13.014237651384036 0.29304152587330967 13.09133691837917 0.2109871826081704 L 13.174261893266587 0.07070800603581895 L 13.174261893266587 -0.052169286629503375 L 13.141489599237847 -0.0710867144716103 Z" fill="#ffffff" transform="matrix(1,0,0,1,0,0)" fill-rule="nonzero"></path></g><g clip-path="url(#b681acd2d-61d5-4f6e-bd5d-5a7213a32c856c972a9e-e888-4155-ab0d-7bc2ce73bf8b)"><path d=" M 9.65071898105741 -0.07111896008725016 L 9.617892944335937 -0.015592009955247566 L 9.617892944335937 0.18165442091435802 L 9.827704416766577 -0.17331606458881466 Z" fill="#ffffff" transform="matrix(1,0,0,1,0,0)" fill-rule="nonzero"></path></g><g clip-path="url(#b681acd2d-61d5-4f6e-bd5d-5a7213a32c856c972a9e-e888-4155-ab0d-7bc2ce73bf8b)"><path d=" M 9.716510785501466 1.5050252353166638 L 9.722089277007179 1.4986406034199526 C 9.726979862045905 1.4930836089913337 9.731924189777365 1.4874836204085278 9.73694375727865 1.4818621347486292 L 9.741716108393364 1.4765093625523966 C 9.748100740290075 1.4693938300345133 9.754592857572254 1.4622353033624433 9.76118171170135 1.4550552796132799 L 9.766201279202637 1.4496272676472208 C 9.771403571859217 1.443973536371682 9.776681104285622 1.4382875594805031 9.782023127943308 1.432590834050778 L 9.788429256917112 1.4257655120736539 C 9.795719080340266 1.4180271923538328 9.803046085553108 1.4103239839393549 9.810410018244983 1.4026561541983877 C 9.817160100452313 1.3956373585273893 9.824028416583623 1.3885970657793325 9.830950475407667 1.381513778877089 L 9.838237984542298 1.3741080358184457 C 9.842870604655904 1.3693894273964657 9.847578464539337 1.3646708189744854 9.852297072961317 1.3599199649368656 L 10.6600282476651 -0.006573986114606356 C 10.630037470329214 -0.021647890970037054 10.59987509445547 -0.03637793696872538 10.569547050179377 -0.05076122807989636 L 9.617892944335937 1.5592623608230682 L 9.617892944335937 1.6298157678432896 L 9.698442492204546 1.5259848854826346 C 9.704354188405203 1.519030581042951 9.710394867068421 1.512044030987627 9.716510785501466 1.5050252353166638" fill="#ffffff" transform="matrix(1,0,0,1,0,0)" fill-rule="nonzero"></path></g><g clip-path="url(#b681acd2d-61d5-4f6e-bd5d-5a7213a32c856c972a9e-e888-4155-ab0d-7bc2ce73bf8b)"><path d=" M 10.785023002424113 1.5532539277754895 L 10.290708463202147 2.389543969397726 L 10.377642642967466 2.439739644410589 L 10.797340827598575 1.729701936557324 C 10.792508582727367 1.6709388909402771 10.788402327807503 1.6121184016170012 10.785023002424111 1.553253927775474" fill="#ffffff" transform="matrix(1,0,0,1,0,0)" fill-rule="nonzero"></path></g><g clip-path="url(#b681acd2d-61d5-4f6e-bd5d-5a7213a32c856c972a9e-e888-4155-ab0d-7bc2ce73bf8b)"><path d=" M 12.758884621131234 2.2409239269131733 L 12.855245269201966 2.1852894913957037 L 13.174272641805135 1.645562376814135 L 13.174272641805135 1.4483374430216225 L 12.714213694931349 2.2266606162617664 C 12.72974533313126 2.2319059030725326 12.744728795865292 2.2367104998028857 12.758884621131234 2.2409239269131733" fill="#ffffff" transform="matrix(1,0,0,1,0,0)" fill-rule="nonzero"></path></g><g clip-path="url(#b681acd2d-61d5-4f6e-bd5d-5a7213a32c856c972a9e-e888-4155-ab0d-7bc2ce73bf8b)"><path d=" M 11.442113409396573 3.0011465612407555 L 11.9827756468317 2.0864566794592414 C 11.954817794334428 2.071967026162808 11.927037916936445 2.0571365202231386 11.899442227479478 2.0419684784146335 L 11.894196940668742 2.0390556244685074 L 11.331747415599551 2.9905914963879434 L 11.396077418801262 3.0277276970666245 Z" fill="#ffffff" transform="matrix(1,0,0,1,0,0)" fill-rule="nonzero"></path></g><g clip-path="url(#b681acd2d-61d5-4f6e-bd5d-5a7213a32c856c972a9e-e888-4155-ab0d-7bc2ce73bf8b)"><path d=" M 12.43264497916326 2.1128120959756305 L 13.174261893266587 0.8581459399635232 L 13.174261893266587 0.6609102576324641 L 12.341035185130147 2.0705488424101963 C 12.37145473685668 2.0848889299725637 12.40199237943896 2.098977163063438 12.432644979163214 2.11281209597561" fill="#ffffff" transform="matrix(1,0,0,1,0,0)" fill-rule="nonzero"></path></g><g clip-path="url(#b681acd2d-61d5-4f6e-bd5d-5a7213a32c856c972a9e-e888-4155-ab0d-7bc2ce73bf8b)"><path d=" M 11.178236788076273 0.29784612260366283 C 11.15017375947432 0.2795969571364183 11.121986855781756 0.261538994175885 11.093678035329763 0.2436734883285374 L 10.92595783984781 0.527424157421597 C 10.931719056508815 0.5237696543157353 10.937426530477087 0.5201151512098738 10.943219992753733 0.5164713966425585 C 10.997988205928838 0.48212231604187417 11.053168037103802 0.44843395417778376 11.10874748637215 0.41541363722695146 Z" fill="#ffffff" transform="matrix(1,0,0,1,0,0)" fill-rule="nonzero"></path></g><g clip-path="url(#b681acd2d-61d5-4f6e-bd5d-5a7213a32c856c972a9e-e888-4155-ab0d-7bc2ce73bf8b)"><path d=" M 10.574394641063925 0.7624087071284966 C 10.583821152118244 0.7557315379518437 10.593261973523116 0.7490745944337205 10.602717040134674 0.7424379225085911 C 10.607736607635639 0.7389231504040625 10.612723929521286 0.735397629760761 10.617764994099666 0.7318936061945525 C 10.627718140793865 0.7249393017548686 10.637768024334985 0.7179957458537318 10.647828656414651 0.7110414414140482 L 10.661296575213605 0.7017117099555545 C 10.675817850790132 0.6917370661842617 10.69039286905939 0.681762422412969 10.705107618329757 0.6717985271802229 C 10.715737922952396 0.6645862578154194 10.726529455653235 0.6573954855277095 10.737256497122793 0.6502047132399993 L 11.008764580811215 0.1908874155259319 C 10.98021784578891 0.17342854793236273 10.951547184156492 0.1561731234857595 10.922754775360833 0.13912245388521338 L 10.53970910717388 0.7871733399399823 C 10.546383949611352 0.7823794917481757 10.553026546433182 0.7775963920949154 10.559755131563387 0.7728132924416555 C 10.564634968063567 0.7693522630296337 10.569493307486653 0.7658697365405185 10.574394641063925 0.7624087071284966" fill="#ffffff" transform="matrix(1,0,0,1,0,0)" fill-rule="nonzero"></path></g><g clip-path="url(#b681acd2d-61d5-4f6e-bd5d-5a7213a32c856c972a9e-e888-4155-ab0d-7bc2ce73bf8b)"><path d=" M 10.77716582074651 0.8159364290908222 C 10.764983439665244 0.82420891304594 10.752823216188766 0.8325139802287558 10.740685280919058 0.8408515414420401 L 9.943702644762043 2.189191210888138 L 10.030615327450269 2.2393868859010015 L 10.773081376098784 0.9832911742621895 C 10.773898265028329 0.9268935925079078 10.77520958673102 0.871033437680959 10.77716582074651 0.8159364290908222" fill="#ffffff" transform="matrix(1,0,0,1,0,0)" fill-rule="nonzero"></path></g><g clip-path="url(#b681acd2d-61d5-4f6e-bd5d-5a7213a32c856c972a9e-e888-4155-ab0d-7bc2ce73bf8b)"><path d=" M 10.776424171586791 1.3618869474909023 C 10.774475821183907 1.3014604605538436 10.77320383112749 1.2410140598445838 10.772608440402731 1.1805591022089121 L 10.117205553982096 2.289378338681479 L 10.204128985208868 2.3395632651557956 L 10.77674662774319 1.3708082344846235 L 10.776424171586791 1.3618869474909023" fill="#ffffff" transform="matrix(1,0,0,1,0,0)" fill-rule="nonzero"></path></g><g clip-path="url(#b681acd2d-61d5-4f6e-bd5d-5a7213a32c856c972a9e-e888-4155-ab0d-7bc2ce73bf8b)"><path d=" M 12.618755924098535 2.191674123292415 L 13.174272641805135 1.2518541583888294 L 13.174272641805135 1.0546077275192238 L 12.524867439893532 2.1532588465266818 C 12.555974462877261 2.1665214163534645 12.587273977948076 2.1793278807911394 12.618755924098533 2.1916741232924144" fill="#ffffff" transform="matrix(1,0,0,1,0,0)" fill-rule="nonzero"></path></g><g clip-path="url(#b681acd2d-61d5-4f6e-bd5d-5a7213a32c856c972a9e-e888-4155-ab0d-7bc2ce73bf8b)"><path d=" M 11.33647677256008 0.22662630619354873 C 11.364376903920641 0.24520070359071577 11.392155303997605 0.26395730418441077 11.419810191912289 0.2828949054852816 L 11.745716629185296 -0.2684836248808691 C 11.737519842482325 -0.3196020465670978 11.728820270838385 -0.3706385780729794 11.719619177594037 -0.4215858079393191 Z" fill="#ffffff" transform="matrix(1,0,0,1,0,0)" fill-rule="nonzero"></path></g><g clip-path="url(#b681acd2d-61d5-4f6e-bd5d-5a7213a32c856c972a9e-e888-4155-ab0d-7bc2ce73bf8b)"><path d=" M 10.511311468333627 1.0046700174314793 C 10.510268860094602 1.0054439122068382 10.50921550331703 1.006196309905104 10.508194392155097 1.0069702046804632 C 10.480269438519596 1.0277752626565153 10.452498045044049 1.0487856421353703 10.424882469880073 1.0699996347179734 L 10.424839475725815 1.0700318803336688 C 10.40594947211519 1.0845600110660611 10.387142804254891 1.099196177613845 10.368420396894516 1.1139396602966802 C 10.362755917080353 1.1183680581779614 10.357134431420455 1.1228072045977284 10.35153444283765 1.1272570995560423 C 10.346837331492763 1.1309545968160903 10.342183214302063 1.134673591153232 10.337529097111362 1.1383818369518268 L 10.327242745722216 1.1466259660171088 L 9.770199735541992 2.0890255801718904 L 9.857123166768764 2.1392212551847547 L 10.540483001949239 0.983119197645443 C 10.530737635632503 0.9902736262705036 10.521013747365762 0.9974572651705826 10.511311468333494 1.0046700174315784" fill="#ffffff" transform="matrix(1,0,0,1,0,0)" fill-rule="nonzero"></path></g><g clip-path="url(#b681acd2d-61d5-4f6e-bd5d-5a7213a32c856c972a9e-e888-4155-ab0d-7bc2ce73bf8b)"><path d=" M 11.80486583680752 0.2216389843079023 L 11.665306812317795 0.4577306334851068 C 11.692351750938721 0.4777825860275853 11.71927020753538 0.49800457045877633 11.746060582418764 0.5183953850423904 L 11.81693644559541 0.3984631919388695 C 11.813643389131743 0.3394741972666604 11.809619544003358 0.2805282701009597 11.804865836807526 0.22163898430796358" fill="#ffffff" transform="matrix(1,0,0,1,0,0)" fill-rule="nonzero"></path></g><g clip-path="url(#b681acd2d-61d5-4f6e-bd5d-5a7213a32c856c972a9e-e888-4155-ab0d-7bc2ce73bf8b)"><path d=" M 12.557188295303312 0.9174348785868545 L 11.983764512377991 1.8875334765763578 C 12.012947491582057 1.9039424646151337 12.042321679673377 1.9200090490749377 12.071881031383487 1.935729923419569 L 12.792452307012425 0.716641429996854 C 12.714020221237508 0.7872593282483555 12.633803878063848 0.8552115889402876 12.557188295303312 0.9174348785868545" fill="#ffffff" transform="matrix(1,0,0,1,0,0)" fill-rule="nonzero"></path></g><g clip-path="url(#b681acd2d-61d5-4f6e-bd5d-5a7213a32c856c972a9e-e888-4155-ab0d-7bc2ce73bf8b)"><path d=" M 10.113379074259488 1.1195289003409998 C 10.122736224966479 1.111551117047751 10.132119750497349 1.1036043207027837 10.14152949671299 1.0956886418446783 C 10.154327807664007 1.0848907116386344 10.16717963522815 1.0741563722513563 10.18008450448015 1.063486020358639 C 10.185061077827108 1.05936933009539 10.19009139386694 1.0552526398320228 10.195100212829681 1.0511252010301084 L 10.20886909070794 1.0398392355561241 L 10.224658693832973 1.026994731992875 C 10.22932355956222 1.0232112464244536 10.234009922368559 1.019438509394579 10.2386962851749 1.0156657723647045 C 10.257813061662036 1.0002523507601389 10.277024647722905 0.9849568899444265 10.296329948862208 0.969780261308919 L 10.309754873506813 0.959257442071876 L 10.326855798334536 0.9459077571969345 C 10.328618558656188 0.9445211957244166 10.330424313132026 0.9431561313289918 10.332187073453676 0.9417803183950206 L 10.836336525445828 0.08887303617966036 C 10.809263381742893 0.07340954531017041 10.782072366830697 0.058153340079426075 10.754765866415328 0.04310575904803926 C 10.752798883861251 0.04200940811625897 10.750735164460293 0.040913057184500445 10.74872518775207 0.03981670625274214 L 10.107585611982842 1.1245162222266458 L 10.113379074259488 1.1195289003409998" fill="#ffffff" transform="matrix(1,0,0,1,0,0)" fill-rule="nonzero"></path></g><g clip-path="url(#b681acd2d-61d5-4f6e-bd5d-5a7213a32c856c972a9e-e888-4155-ab0d-7bc2ce73bf8b)"><path d=" M 11.502176242795262 0.34000189078363086 C 11.529650057795681 0.35931086621261676 11.557005599345164 0.3787875818462749 11.584241334599017 0.3984309463232787 L 11.789022490989755 0.05198405188755162 C 11.78327437618065 -0.002664089971312178 11.776648838978314 -0.057216376811965564 11.769148443216997 -0.11165169894667037 Z" fill="#ffffff" transform="matrix(1,0,0,1,0,0)" fill-rule="nonzero"></path></g><g clip-path="url(#b681acd2d-61d5-4f6e-bd5d-5a7213a32c856c972a9e-e888-4155-ab0d-7bc2ce73bf8b)"><path d=" M 10.943048016136986 2.6643196088043304 C 10.931543964870997 2.61690072733127 10.920819061547341 2.5692962032234297 10.910877640266852 2.5215252742120446 L 10.811238687939397 2.6900838557006543 L 10.898172867704716 2.740268782174972 Z" fill="#ffffff" transform="matrix(1,0,0,1,0,0)" fill-rule="nonzero"></path></g><g clip-path="url(#b681acd2d-61d5-4f6e-bd5d-5a7213a32c856c972a9e-e888-4155-ab0d-7bc2ce73bf8b)"><path d=" M 13.174261893266587 2.00110253486028 L 13.174261893266587 1.8420456614469276 L 13.031553546982693 2.083500831358912 Z" fill="#ffffff" transform="matrix(1,0,0,1,0,0)" fill-rule="nonzero"></path></g><g clip-path="url(#b681acd2d-61d5-4f6e-bd5d-5a7213a32c856c972a9e-e888-4155-ab0d-7bc2ce73bf8b)"><path d=" M 11.80708003574813 1.9900100430801353 C 11.778057204556582 1.973363344670156 11.749164259411934 1.9564912118965774 11.720403820907922 1.9393951750639453 L 11.158255254918046 2.8904151171331494 L 11.245189434683367 2.9406107921460123 Z" fill="#ffffff" transform="matrix(1,0,0,1,0,0)" fill-rule="nonzero"></path></g><g clip-path="url(#b681acd2d-61d5-4f6e-bd5d-5a7213a32c856c972a9e-e888-4155-ab0d-7bc2ce73bf8b)"><path d=" M 11.634834705538037 1.887694704654558 C 11.606321698253236 1.870167396532623 11.577930542874558 1.8524426305484836 11.549663286094447 1.8345216844643222 L 11.074900338488764 2.637727724439914 C 11.085541391649947 2.687654685989111 11.096408164120612 2.7356576591384583 11.107285685129824 2.7802103514143295 Z" fill="#ffffff" transform="matrix(1,0,0,1,0,0)" fill-rule="nonzero"></path></g><g clip-path="url(#b681acd2d-61d5-4f6e-bd5d-5a7213a32c856c972a9e-e888-4155-ab0d-7bc2ce73bf8b)"><path d=" M 12.535411756207797 2.3326627034088454 C 12.503601588110474 2.320874778603108 12.471944518131902 2.3086777592248335 12.440448418148135 2.296074678196045 L 12.324955371464357 2.4914508633585313 L 12.501962304250618 2.3892645073955134 Z" fill="#ffffff" transform="matrix(1,0,0,1,0,0)" fill-rule="nonzero"></path></g><g clip-path="url(#b681acd2d-61d5-4f6e-bd5d-5a7213a32c856c972a9e-e888-4155-ab0d-7bc2ce73bf8b)"><path d=" M 11.618410938638753 2.8993686497425104 L 11.79539637434792 2.797171545240946 L 12.162985644104861 2.1753040990858645 C 12.13258258694385 2.1610370459834463 12.102313383427461 2.1464864736018106 12.072181990462663 2.1316542840478707 Z" fill="#ffffff" transform="matrix(1,0,0,1,0,0)" fill-rule="nonzero"></path></g><g clip-path="url(#b681acd2d-61d5-4f6e-bd5d-5a7213a32c856c972a9e-e888-4155-ab0d-7bc2ce73bf8b)"><path d=" M 11.971704652128649 2.6953936337427002 L 12.148700836376362 2.593207277779683 L 12.347075863793366 2.257584161660483 C 12.316051364826087 2.244403598161812 12.285151532426715 2.2309315005479853 12.254380467367039 2.2171696567250714 Z" fill="#ffffff" transform="matrix(1,0,0,1,0,0)" fill-rule="nonzero"></path></g></g><g><path d=" M 1.9189595947265614 1.0799999999999996 Q 1.7749595947265615 1.0799999999999996 1.6782095947265616 1.0379999999999998 Q 1.5814595947265615 0.9959999999999998 1.5319595947265616 0.9284999999999997 Q 1.4824595947265615 0.8609999999999998 1.4794595947265616 0.7844999999999998 Q 1.4794595947265616 0.7724999999999997 1.4884595947265615 0.7627499999999997 Q 1.4974595947265614 0.7529999999999997 1.5109595947265615 0.7529999999999997 L 1.6714595947265616 0.7529999999999997 Q 1.6909595947265617 0.7529999999999997 1.7014595947265616 0.7612499999999998 Q 1.7119595947265616 0.7694999999999997 1.7209595947265615 0.7814999999999996 Q 1.7314595947265614 0.8069999999999997 1.7547095947265614 0.8309999999999997 Q 1.7779595947265616 0.8549999999999998 1.8184595947265616 0.8707499999999997 Q 1.8589595947265616 0.8864999999999997 1.9189595947265614 0.8864999999999997 Q 2.0164595947265616 0.8864999999999997 2.0652095947265616 0.8549999999999998 Q 2.1139595947265617 0.8234999999999997 2.1139595947265617 0.7694999999999997 Q 2.1139595947265617 0.7304999999999997 2.0877095947265616 0.7064999999999997 Q 2.0614595947265615 0.6824999999999997 2.0052095947265616 0.6629999999999997 Q 1.9489595947265617 0.6434999999999997 1.8559595947265615 0.6209999999999998 Q 1.7434595947265614 0.5969999999999998 1.6647095947265615 0.5587499999999997 Q 1.5859595947265615 0.5204999999999997 1.5462095947265615 0.45974999999999966 Q 1.5064595947265615 0.3989999999999997 1.5064595947265615 0.3089999999999997 Q 1.5064595947265615 0.21899999999999975 1.5559595947265614 0.14924999999999966 Q 1.6054595947265615 0.07949999999999968 1.6954595947265616 0.03974999999999973 Q 1.7854595947265615 -2.220446049250313e-16 1.9099595947265615 -2.220446049250313e-16 Q 2.0104595947265613 -2.220446049250313e-16 2.0877095947265616 0.02699999999999969 Q 2.1649595947265614 0.053999999999999604 2.2167095947265616 0.0974999999999997 Q 2.2684595947265613 0.14099999999999968 2.2954595947265615 0.19049999999999967 Q 2.3224595947265616 0.23999999999999966 2.3239595947265617 0.28649999999999975 Q 2.3239595947265617 0.29849999999999965 2.3149595947265613 0.3082499999999997 Q 2.3059595947265614 0.3179999999999997 2.2924595947265614 0.3179999999999997 L 2.1244595947265617 0.3179999999999997 Q 2.1094595947265615 0.3179999999999997 2.0974595947265615 0.3119999999999997 Q 2.0854595947265615 0.3059999999999997 2.0779595947265617 0.2909999999999997 Q 2.0689595947265618 0.25199999999999967 2.0247095947265614 0.22274999999999967 Q 1.9804595947265615 0.19349999999999967 1.9099595947265615 0.19349999999999967 Q 1.8364595947265616 0.19349999999999967 1.7937095947265616 0.2204999999999997 Q 1.7509595947265615 0.24749999999999972 1.7509595947265615 0.3029999999999997 Q 1.7509595947265615 0.33899999999999975 1.7727095947265616 0.3637499999999997 Q 1.7944595947265616 0.38849999999999973 1.8462095947265615 0.40724999999999967 Q 1.8979595947265615 0.4259999999999997 1.9834595947265616 0.4484999999999997 Q 2.1154595947265618 0.4754999999999997 2.1979595947265613 0.5129999999999997 Q 2.280459594726562 0.5504999999999998 2.3194595947265615 0.6097499999999998 Q 2.3584595947265616 0.6689999999999997 2.3584595947265616 0.7589999999999997 Q 2.3584595947265616 0.8594999999999997 2.3022095947265617 0.9314999999999998 Q 2.2459595947265614 1.0034999999999998 2.1477095947265616 1.0417499999999997 Q 2.0494595947265615 1.0799999999999996 1.9189595947265614 1.0799999999999996 M 2.7768973388671867 1.0649999999999997 Q 2.7603973388671865 1.0649999999999997 2.7498973388671866 1.0544999999999998 Q 2.7393973388671866 1.0439999999999998 2.7393973388671866 1.0274999999999996 L 2.7393973388671866 0.2234999999999997 L 2.4663973388671865 0.2234999999999997 Q 2.4513973388671864 0.2234999999999997 2.4408973388671864 0.21299999999999975 Q 2.4303973388671865 0.20249999999999968 2.4303973388671865 0.18749999999999967 L 2.4303973388671865 0.05249999999999977 Q 2.4303973388671865 0.03599999999999981 2.4408973388671864 0.025499999999999634 Q 2.4513973388671864 0.01499999999999968 2.4663973388671865 0.01499999999999968 L 3.2523973388671865 0.01499999999999968 Q 3.2688973388671867 0.01499999999999968 3.2793973388671867 0.025499999999999634 Q 3.2898973388671866 0.03599999999999981 3.2898973388671866 0.05249999999999977 L 3.2898973388671866 0.18749999999999967 Q 3.2898973388671866 0.20249999999999968 3.2793973388671867 0.21299999999999975 Q 3.2688973388671867 0.2234999999999997 3.2523973388671865 0.2234999999999997 L 2.9808973388671864 0.2234999999999997 L 2.9808973388671864 1.0274999999999996 Q 2.9808973388671864 1.0439999999999998 2.9703973388671865 1.0544999999999998 Q 2.9598973388671865 1.0649999999999997 2.943397338867187 1.0649999999999997 L 2.7768973388671867 1.0649999999999997 M 3.8629039306640616 1.0799999999999996 Q 3.7309039306640615 1.0799999999999996 3.6319039306640617 1.0357499999999997 Q 3.5329039306640615 0.9914999999999997 3.4789039306640617 0.8992499999999997 Q 3.4249039306640614 0.8069999999999997 3.4249039306640614 0.6644999999999996 L 3.4249039306640614 0.05249999999999977 Q 3.4249039306640614 0.03599999999999981 3.4354039306640614 0.025499999999999634 Q 3.4459039306640618 0.01499999999999968 3.4624039306640615 0.01499999999999968 L 3.6259039306640615 0.01499999999999968 Q 3.6424039306640617 0.01499999999999968 3.6529039306640616 0.025499999999999634 Q 3.6634039306640616 0.03599999999999981 3.6634039306640616 0.05249999999999977 L 3.6634039306640616 0.6629999999999997 Q 3.6634039306640616 0.7739999999999998 3.7159039306640613 0.8279999999999997 Q 3.7684039306640615 0.8819999999999997 3.8629039306640616 0.8819999999999997 Q 3.9559039306640615 0.8819999999999997 4.008403930664062 0.8279999999999997 Q 4.060903930664061 0.7739999999999998 4.060903930664061 0.6629999999999997 L 4.060903930664061 0.05249999999999977 Q 4.060903930664061 0.03599999999999981 4.0721539306640615 0.025499999999999634 Q 4.083403930664062 0.01499999999999968 4.098403930664062 0.01499999999999968 L 4.263403930664062 0.01499999999999968 Q 4.278403930664061 0.01499999999999968 4.288903930664062 0.025499999999999634 Q 4.299403930664061 0.03599999999999981 4.299403930664061 0.05249999999999977 L 4.299403930664061 0.6644999999999996 Q 4.299403930664061 0.8069999999999997 4.245403930664062 0.8992499999999997 Q 4.191403930664062 0.9914999999999997 4.093903930664061 1.0357499999999997 Q 3.9964039306640613 1.0799999999999996 3.8629039306640616 1.0799999999999996 M 4.549895141601562 1.0649999999999997 Q 4.533395141601561 1.0649999999999997 4.522895141601562 1.0544999999999998 Q 4.512395141601561 1.0439999999999998 4.512395141601561 1.0274999999999996 L 4.512395141601561 0.05249999999999977 Q 4.512395141601561 0.03599999999999981 4.522895141601562 0.025499999999999634 Q 4.533395141601561 0.01499999999999968 4.549895141601562 0.01499999999999968 L 4.926395141601562 0.01499999999999968 Q 5.076395141601561 0.01499999999999968 5.176895141601562 0.062249999999999694 Q 5.277395141601562 0.10949999999999971 5.330645141601561 0.2002499999999997 Q 5.3838951416015615 0.2909999999999997 5.386895141601562 0.42449999999999977 Q 5.388395141601562 0.4904999999999997 5.388395141601562 0.5399999999999997 Q 5.388395141601562 0.5894999999999997 5.386895141601562 0.6539999999999997 Q 5.382395141601561 0.7934999999999997 5.331395141601561 0.8849999999999998 Q 5.280395141601561 0.9764999999999997 5.181395141601562 1.0207499999999998 Q 5.082395141601562 1.0649999999999997 4.933895141601561 1.0649999999999997 L 4.549895141601562 1.0649999999999997 M 4.7508951416015615 0.8714999999999997 L 4.926395141601562 0.8714999999999997 Q 5.001395141601561 0.8714999999999997 5.049395141601561 0.8489999999999998 Q 5.097395141601561 0.8264999999999997 5.120645141601561 0.7777499999999997 Q 5.143895141601561 0.7289999999999996 5.145395141601561 0.6509999999999997 Q 5.146895141601561 0.6074999999999997 5.147645141601561 0.5729999999999997 Q 5.148395141601561 0.5384999999999998 5.147645141601561 0.5039999999999997 Q 5.146895141601561 0.4694999999999997 5.145395141601561 0.42749999999999966 Q 5.142395141601561 0.3149999999999997 5.087645141601562 0.2617499999999997 Q 5.0328951416015615 0.20849999999999969 4.918895141601562 0.20849999999999969 L 4.7508951416015615 0.20849999999999969 L 4.7508951416015615 0.8714999999999997 M 5.613371704101562 1.0649999999999997 Q 5.596871704101561 1.0649999999999997 5.586371704101562 1.0544999999999998 Q 5.575871704101561 1.0439999999999998 5.575871704101561 1.0274999999999996 L 5.575871704101561 0.05249999999999977 Q 5.575871704101561 0.03599999999999981 5.586371704101562 0.025499999999999634 Q 5.596871704101561 0.01499999999999968 5.613371704101562 0.01499999999999968 L 5.782871704101561 0.01499999999999968 Q 5.799371704101562 0.01499999999999968 5.809871704101561 0.025499999999999634 Q 5.820371704101562 0.03599999999999981 5.820371704101562 0.05249999999999977 L 5.820371704101562 1.0274999999999996 Q 5.820371704101562 1.0439999999999998 5.809871704101561 1.0544999999999998 Q 5.799371704101562 1.0649999999999997 5.782871704101561 1.0649999999999997 L 5.613371704101562 1.0649999999999997 M 6.459332885742187 1.0799999999999996 Q 6.322832885742186 1.0799999999999996 6.223832885742187 1.0349999999999997 Q 6.124832885742187 0.9899999999999998 6.069332885742186 0.8992499999999997 Q 6.013832885742186 0.8084999999999998 6.009332885742187 0.6704999999999997 Q 6.007832885742187 0.6059999999999997 6.007832885742187 0.5422499999999997 Q 6.007832885742187 0.4784999999999997 6.009332885742187 0.41249999999999976 Q 6.013832885742186 0.27749999999999975 6.0700828857421865 0.1852499999999997 Q 6.126332885742187 0.09299999999999975 6.226082885742186 0.046499999999999764 Q 6.325832885742186 -2.220446049250313e-16 6.459332885742187 -2.220446049250313e-16 Q 6.591332885742187 -2.220446049250313e-16 6.691082885742187 0.046499999999999764 Q 6.790832885742186 0.09299999999999975 6.847832885742187 0.1852499999999997 Q 6.904832885742186 0.27749999999999975 6.907832885742186 0.41249999999999976 Q 6.910832885742186 0.4784999999999997 6.910832885742186 0.5422499999999997 Q 6.910832885742186 0.6059999999999997 6.907832885742186 0.6704999999999997 Q 6.903332885742186 0.8084999999999998 6.847832885742187 0.8992499999999997 Q 6.792332885742186 0.9899999999999998 6.693332885742187 1.0349999999999997 Q 6.594332885742187 1.0799999999999996 6.459332885742187 1.0799999999999996 M 6.459332885742187 0.8864999999999997 Q 6.546332885742187 0.8864999999999997 6.602582885742186 0.8332499999999997 Q 6.658832885742187 0.7799999999999997 6.661832885742187 0.6629999999999997 Q 6.664832885742187 0.5969999999999998 6.664832885742187 0.5392499999999997 Q 6.664832885742187 0.4814999999999997 6.661832885742187 0.4169999999999997 Q 6.660332885742187 0.33899999999999975 6.6333328857421865 0.28949999999999976 Q 6.606332885742186 0.23999999999999966 6.5620828857421865 0.21674999999999967 Q 6.5178328857421866 0.19349999999999967 6.459332885742187 0.19349999999999967 Q 6.400832885742187 0.19349999999999967 6.355832885742187 0.21674999999999967 Q 6.310832885742187 0.23999999999999966 6.284582885742187 0.28949999999999976 Q 6.2583328857421865 0.33899999999999975 6.255332885742186 0.4169999999999997 Q 6.253832885742186 0.4814999999999997 6.253832885742186 0.5392499999999997 Q 6.253832885742186 0.5969999999999998 6.255332885742186 0.6629999999999997 Q 6.2598328857421865 0.7799999999999997 6.315332885742187 0.8332499999999997 Q 6.370832885742186 0.8864999999999997 6.459332885742187 0.8864999999999997 M 7.804849731445311 1.0799999999999996 Q 7.672849731445312 1.0799999999999996 7.576099731445312 1.0319999999999998 Q 7.4793497314453115 0.9839999999999998 7.426099731445311 0.8992499999999997 Q 7.372849731445312 0.8144999999999998 7.372849731445312 0.7079999999999997 Q 7.372849731445312 0.6629999999999997 7.3863497314453115 0.6179999999999997 Q 7.399849731445311 0.5729999999999997 7.419349731445312 0.5332499999999997 Q 7.438849731445312 0.4934999999999997 7.459099731445312 0.46199999999999974 Q 7.4793497314453115 0.43049999999999966 7.492849731445312 0.4109999999999997 L 7.7628497314453115 0.04499999999999971 Q 7.770349731445312 0.037499999999999645 7.782349731445311 0.026249999999999662 Q 7.794349731445312 0.01499999999999968 7.815349731445312 0.01499999999999968 L 7.983349731445312 0.01499999999999968 Q 7.9968497314453115 0.01499999999999968 8.005849731445311 0.024749999999999606 Q 8.014849731445311 0.03449999999999975 8.014849731445311 0.0479999999999996 Q 8.014849731445311 0.053999999999999604 8.013349731445311 0.0592499999999998 Q 8.011849731445311 0.06449999999999978 8.008849731445311 0.06749999999999967 L 7.801849731445311 0.35099999999999976 Q 7.813849731445312 0.34799999999999975 7.829599731445311 0.3464999999999997 Q 7.845349731445312 0.34499999999999975 7.857349731445312 0.34499999999999975 Q 7.929349731445312 0.34799999999999975 7.9960997314453115 0.37499999999999967 Q 8.062849731445311 0.4019999999999997 8.115349731445312 0.4492499999999997 Q 8.167849731445312 0.4964999999999997 8.198599731445311 0.5609999999999997 Q 8.229349731445312 0.6254999999999997 8.229349731445312 0.7049999999999997 Q 8.229349731445312 0.8054999999999997 8.177599731445312 0.8909999999999997 Q 8.125849731445312 0.9764999999999997 8.030599731445312 1.0282499999999997 Q 7.935349731445312 1.0799999999999996 7.804849731445311 1.0799999999999996 M 7.801849731445311 0.8864999999999997 Q 7.851349731445311 0.8864999999999997 7.893349731445312 0.8662499999999997 Q 7.935349731445312 0.8459999999999998 7.960849731445311 0.8054999999999997 Q 7.986349731445312 0.7649999999999997 7.986349731445312 0.7079999999999997 Q 7.986349731445312 0.6494999999999997 7.960849731445311 0.6097499999999998 Q 7.935349731445312 0.5699999999999997 7.893349731445312 0.5497499999999997 Q 7.851349731445311 0.5294999999999997 7.801849731445311 0.5294999999999997 Q 7.752349731445311 0.5294999999999997 7.710349731445311 0.5497499999999997 Q 7.6683497314453115 0.5699999999999997 7.642849731445311 0.6097499999999998 Q 7.617349731445311 0.6494999999999997 7.617349731445311 0.7079999999999997 Q 7.617349731445311 0.7649999999999997 7.6435997314453115 0.8054999999999997 Q 7.669849731445312 0.8459999999999998 7.711099731445311 0.8662499999999997 Q 7.752349731445311 0.8864999999999997 7.801849731445311 0.8864999999999997 M 8.542850463867186 1.0649999999999997 Q 8.529350463867187 1.0649999999999997 8.520350463867187 1.0552499999999998 Q 8.511350463867187 1.0454999999999997 8.511350463867187 1.0319999999999998 Q 8.511350463867187 1.0244999999999997 8.513600463867187 1.0199999999999998 Q 8.515850463867187 1.0154999999999996 8.517350463867187 1.0124999999999997 L 8.734850463867186 0.7154999999999997 Q 8.707850463867187 0.7214999999999997 8.680850463867186 0.7199999999999998 Q 8.608850463867187 0.7169999999999996 8.544350463867186 0.6907499999999998 Q 8.479850463867187 0.6644999999999996 8.428850463867187 0.6179999999999997 Q 8.377850463867187 0.5714999999999997 8.349350463867186 0.5084999999999997 Q 8.320850463867187 0.4454999999999997 8.320850463867187 0.36899999999999966 Q 8.320850463867187 0.2999999999999997 8.347100463867186 0.23399999999999965 Q 8.373350463867187 0.1679999999999997 8.425850463867187 0.11549999999999971 Q 8.478350463867187 0.06299999999999972 8.556350463867187 0.03149999999999964 Q 8.634350463867186 -2.220446049250313e-16 8.737850463867186 -2.220446049250313e-16 Q 8.841350463867187 -2.220446049250313e-16 8.920100463867186 0.028499999999999748 Q 8.998850463867187 0.05699999999999972 9.052850463867186 0.10724999999999973 Q 9.106850463867186 0.15749999999999975 9.133850463867187 0.22274999999999967 Q 9.160850463867186 0.2879999999999997 9.160850463867186 0.3614999999999997 Q 9.160850463867186 0.42749999999999966 9.138350463867187 0.4844999999999997 Q 9.115850463867186 0.5414999999999998 9.082850463867187 0.5909999999999997 Q 9.049850463867186 0.6404999999999997 9.016850463867186 0.6869999999999997 L 8.764850463867187 1.0349999999999997 Q 8.758850463867187 1.0424999999999998 8.746850463867187 1.0537499999999997 Q 8.734850463867186 1.0649999999999997 8.712350463867187 1.0649999999999997 L 8.542850463867186 1.0649999999999997 M 8.739350463867186 0.5429999999999997 Q 8.788850463867186 0.5429999999999997 8.829350463867186 0.5219999999999997 Q 8.869850463867186 0.5009999999999997 8.893100463867187 0.46199999999999974 Q 8.916350463867186 0.4229999999999997 8.916350463867186 0.36899999999999966 Q 8.916350463867186 0.31349999999999967 8.893100463867187 0.27449999999999974 Q 8.869850463867186 0.2354999999999997 8.829350463867186 0.2144999999999997 Q 8.788850463867186 0.19349999999999967 8.739350463867186 0.19349999999999967 Q 8.691350463867186 0.19349999999999967 8.650850463867187 0.2144999999999997 Q 8.610350463867187 0.2354999999999997 8.587100463867186 0.27449999999999974 Q 8.563850463867187 0.31349999999999967 8.563850463867187 0.36899999999999966 Q 8.563850463867187 0.4229999999999997 8.587100463867186 0.46199999999999974 Q 8.610350463867187 0.5009999999999997 8.650850463867187 0.5219999999999997 Q 8.691350463867186 0.5429999999999997 8.739350463867186 0.5429999999999997" fill="#ffffff" fill-rule="nonzero"></path></g><g><path d=" M 0.25425000000000003 1.9623749999999998 Q 0.18525 1.9623749999999998 0.139875 1.9368749999999997 Q 0.0945 1.9113749999999996 0.07125000000000001 1.8656249999999996 Q 0.048 1.8198749999999997 0.04575 1.7591249999999996 Q 0.045 1.7283749999999998 0.045 1.6931249999999998 Q 0.045 1.6578749999999998 0.04575 1.6256249999999997 Q 0.048 1.5648749999999998 0.07125000000000001 1.5191249999999996 Q 0.0945 1.4733749999999997 0.139875 1.4478749999999998 Q 0.18525 1.4223749999999997 0.25425000000000003 1.4223749999999997 Q 0.306 1.4223749999999997 0.34500000000000003 1.4366249999999998 Q 0.384 1.4508749999999997 0.409875 1.4748749999999997 Q 0.43575 1.4988749999999997 0.44925 1.5284999999999997 Q 0.46275 1.5581249999999998 0.46425 1.5896249999999996 Q 0.465 1.5963749999999997 0.460125 1.6008749999999998 Q 0.45525 1.6053749999999996 0.4485 1.6053749999999996 L 0.40725 1.6053749999999996 Q 0.4005 1.6053749999999996 0.395625 1.6016249999999996 Q 0.39075 1.5978749999999997 0.3885 1.5881249999999998 Q 0.37575000000000003 1.5296249999999998 0.340875 1.5078749999999996 Q 0.306 1.4861249999999997 0.25425000000000003 1.4861249999999997 Q 0.1935 1.4861249999999997 0.15825 1.5202499999999997 Q 0.123 1.5543749999999996 0.12075 1.6293749999999996 Q 0.11850000000000001 1.6908749999999997 0.12075 1.7553749999999997 Q 0.123 1.8303749999999996 0.15825 1.8644999999999996 Q 0.1935 1.8986249999999998 0.25425000000000003 1.8986249999999998 Q 0.306 1.8986249999999998 0.340875 1.8768749999999996 Q 0.37575000000000003 1.8551249999999997 0.3885 1.7966249999999997 Q 0.39075 1.7868749999999998 0.395625 1.7831249999999996 Q 0.4005 1.7793749999999997 0.40725 1.7793749999999997 L 0.4485 1.7793749999999997 Q 0.45525 1.7793749999999997 0.460125 1.7834999999999996 Q 0.465 1.7876249999999998 0.46425 1.7943749999999996 Q 0.46275 1.8258749999999997 0.44925 1.8558749999999997 Q 0.43575 1.8858749999999997 0.409875 1.9098749999999998 Q 0.384 1.9338749999999998 0.34500000000000003 1.9481249999999997 Q 0.306 1.9623749999999998 0.25425000000000003 1.9623749999999998 M 0.5253724365234375 1.9548749999999997 Q 0.5193724365234375 1.9548749999999997 0.5148724365234374 1.9503749999999997 Q 0.5103724365234374 1.9458749999999998 0.5103724365234374 1.9398749999999998 Q 0.5103724365234374 1.9361249999999997 0.5111224365234375 1.9316249999999997 L 0.6971224365234374 1.4463749999999997 Q 0.7001224365234374 1.4388749999999997 0.7053724365234374 1.4343749999999997 Q 0.7106224365234375 1.4298749999999996 0.7211224365234374 1.4298749999999996 L 0.7721224365234374 1.4298749999999996 Q 0.7826224365234374 1.4298749999999996 0.7878724365234374 1.4343749999999997 Q 0.7931224365234375 1.4388749999999997 0.7961224365234374 1.4463749999999997 L 0.9813724365234374 1.9316249999999997 Q 0.9828724365234374 1.9361249999999997 0.9828724365234374 1.9398749999999998 Q 0.9828724365234374 1.9458749999999998 0.9783724365234374 1.9503749999999997 Q 0.9738724365234375 1.9548749999999997 0.9678724365234375 1.9548749999999997 L 0.9296224365234375 1.9548749999999997 Q 0.9206224365234374 1.9548749999999997 0.9164974365234375 1.9503749999999997 Q 0.9123724365234374 1.9458749999999998 0.9108724365234375 1.9421249999999997 L 0.8696224365234375 1.8356249999999996 L 0.6236224365234374 1.8356249999999996 L 0.5823724365234374 1.9421249999999997 Q 0.5816224365234375 1.9458749999999998 0.5771224365234374 1.9503749999999997 Q 0.5726224365234375 1.9548749999999997 0.5636224365234375 1.9548749999999997 L 0.5253724365234375 1.9548749999999997 M 0.6453724365234375 1.7711249999999996 L 0.8478724365234374 1.7711249999999996 L 0.7466224365234375 1.5048749999999997 L 0.6453724365234375 1.7711249999999996 M 1.0814846191406249 1.9548749999999997 Q 1.0732346191406248 1.9548749999999997 1.0687346191406248 1.9499999999999997 Q 1.064234619140625 1.9451249999999998 1.064234619140625 1.9376249999999997 L 1.064234619140625 1.4478749999999998 Q 1.064234619140625 1.4396249999999997 1.0687346191406248 1.4347499999999997 Q 1.0732346191406248 1.4298749999999996 1.0814846191406249 1.4298749999999996 L 1.2719846191406248 1.4298749999999996 Q 1.3274846191406249 1.4298749999999996 1.3683596191406249 1.4478749999999998 Q 1.4092346191406249 1.4658749999999996 1.4317346191406248 1.5014999999999996 Q 1.4542346191406248 1.5371249999999996 1.4542346191406248 1.5903749999999997 Q 1.4542346191406248 1.6436249999999997 1.4317346191406248 1.6788749999999997 Q 1.4092346191406249 1.7141249999999997 1.3683596191406249 1.7321249999999997 Q 1.3274846191406249 1.7501249999999997 1.2719846191406248 1.7501249999999997 L 1.1392346191406248 1.7501249999999997 L 1.1392346191406248 1.9376249999999997 Q 1.1392346191406248 1.9451249999999998 1.1343596191406249 1.9499999999999997 Q 1.129484619140625 1.9548749999999997 1.1212346191406248 1.9548749999999997 L 1.0814846191406249 1.9548749999999997 M 1.1384846191406248 1.6871249999999998 L 1.2682346191406249 1.6871249999999998 Q 1.323734619140625 1.6871249999999998 1.351484619140625 1.6623749999999997 Q 1.3792346191406248 1.6376249999999997 1.3792346191406248 1.5903749999999997 Q 1.3792346191406248 1.5438749999999997 1.352234619140625 1.5183749999999998 Q 1.3252346191406248 1.4928749999999997 1.2682346191406249 1.4928749999999997 L 1.1384846191406248 1.4928749999999997 L 1.1384846191406248 1.6871249999999998 M 1.678881225585937 1.9548749999999997 Q 1.6713812255859373 1.9548749999999997 1.666506225585937 1.9499999999999997 Q 1.6616312255859371 1.9451249999999998 1.6616312255859371 1.9376249999999997 L 1.6616312255859371 1.4966249999999997 L 1.5176312255859372 1.4966249999999997 Q 1.5101312255859372 1.4966249999999997 1.5052562255859372 1.4917499999999997 Q 1.5003812255859372 1.4868749999999997 1.5003812255859372 1.4793749999999997 L 1.5003812255859372 1.4478749999999998 Q 1.5003812255859372 1.4396249999999997 1.5052562255859372 1.4347499999999997 Q 1.5101312255859372 1.4298749999999996 1.5176312255859372 1.4298749999999996 L 1.8791312255859371 1.4298749999999996 Q 1.8873812255859372 1.4298749999999996 1.8922562255859372 1.4347499999999997 Q 1.8971312255859372 1.4396249999999997 1.8971312255859372 1.4478749999999998 L 1.8971312255859372 1.4793749999999997 Q 1.8971312255859372 1.4868749999999997 1.8922562255859372 1.4917499999999997 Q 1.8873812255859372 1.4966249999999997 1.8791312255859371 1.4966249999999997 L 1.7358812255859373 1.4966249999999997 L 1.7358812255859373 1.9376249999999997 Q 1.7358812255859373 1.9451249999999998 1.7310062255859373 1.9499999999999997 Q 1.7261312255859371 1.9548749999999997 1.7178812255859373 1.9548749999999997 L 1.678881225585937 1.9548749999999997 M 2.180240844726562 1.9623749999999998 Q 2.1172408447265623 1.9623749999999998 2.0718658447265623 1.9398749999999998 Q 2.0264908447265624 1.9173749999999996 2.0021158447265623 1.8712499999999996 Q 1.9777408447265623 1.8251249999999997 1.9777408447265623 1.7523749999999998 L 1.9777408447265623 1.4478749999999998 Q 1.9777408447265623 1.4396249999999997 1.9822408447265623 1.4347499999999997 Q 1.9867408447265622 1.4298749999999996 1.9949908447265623 1.4298749999999996 L 2.033240844726562 1.4298749999999996 Q 2.041490844726562 1.4298749999999996 2.0463658447265622 1.4347499999999997 Q 2.0512408447265624 1.4396249999999997 2.0512408447265624 1.4478749999999998 L 2.0512408447265624 1.7538749999999996 Q 2.0512408447265624 1.8273749999999997 2.0857408447265624 1.8626249999999998 Q 2.1202408447265624 1.8978749999999998 2.180240844726562 1.8978749999999998 Q 2.2394908447265625 1.8978749999999998 2.274365844726562 1.8626249999999998 Q 2.3092408447265624 1.8273749999999997 2.3092408447265624 1.7538749999999996 L 2.3092408447265624 1.4478749999999998 Q 2.3092408447265624 1.4396249999999997 2.314115844726562 1.4347499999999997 Q 2.3189908447265624 1.4298749999999996 2.326490844726562 1.4298749999999996 L 2.3654908447265623 1.4298749999999996 Q 2.372990844726562 1.4298749999999996 2.3778658447265624 1.4347499999999997 Q 2.382740844726562 1.4396249999999997 2.382740844726562 1.4478749999999998 L 2.382740844726562 1.7523749999999998 Q 2.382740844726562 1.8251249999999997 2.358365844726562 1.8712499999999996 Q 2.333990844726562 1.9173749999999996 2.288990844726562 1.9398749999999998 Q 2.243990844726562 1.9623749999999998 2.180240844726562 1.9623749999999998 M 2.526357421875 1.9548749999999997 Q 2.518107421875 1.9548749999999997 2.5136074218749997 1.9499999999999997 Q 2.5091074218749996 1.9451249999999998 2.5091074218749996 1.9376249999999997 L 2.5091074218749996 1.4478749999999998 Q 2.5091074218749996 1.4396249999999997 2.5136074218749997 1.4347499999999997 Q 2.518107421875 1.4298749999999996 2.526357421875 1.4298749999999996 L 2.7093574218749996 1.4298749999999996 Q 2.7941074218749997 1.4298749999999996 2.843607421875 1.4696249999999997 Q 2.893107421875 1.5093749999999997 2.893107421875 1.5873749999999998 Q 2.893107421875 1.6451249999999997 2.8642324218749997 1.6814999999999998 Q 2.835357421875 1.7178749999999996 2.785857421875 1.7321249999999997 L 2.901357421875 1.9316249999999997 Q 2.903607421875 1.9361249999999997 2.903607421875 1.9398749999999998 Q 2.903607421875 1.9458749999999998 2.8987324218749997 1.9503749999999997 Q 2.893857421875 1.9548749999999997 2.8878574218749997 1.9548749999999997 L 2.8518574218749997 1.9548749999999997 Q 2.8391074218749996 1.9548749999999997 2.833107421875 1.9481249999999997 Q 2.8271074218749996 1.9413749999999996 2.822607421875 1.9346249999999996 L 2.713857421875 1.7441249999999997 L 2.5826074218749997 1.7441249999999997 L 2.5826074218749997 1.9376249999999997 Q 2.5826074218749997 1.9451249999999998 2.577732421875 1.9499999999999997 Q 2.5728574218749998 1.9548749999999997 2.564607421875 1.9548749999999997 L 2.526357421875 1.9548749999999997 M 2.5826074218749997 1.6803749999999997 L 2.706357421875 1.6803749999999997 Q 2.762607421875 1.6803749999999997 2.790357421875 1.6567499999999997 Q 2.8181074218749997 1.6331249999999997 2.8181074218749997 1.5866249999999997 Q 2.8181074218749997 1.5408749999999998 2.7907324218749996 1.5168749999999998 Q 2.763357421875 1.4928749999999997 2.706357421875 1.4928749999999997 L 2.5826074218749997 1.4928749999999997 L 2.5826074218749997 1.6803749999999997 M 3.01875439453125 1.9548749999999997 Q 3.01050439453125 1.9548749999999997 3.00600439453125 1.9499999999999997 Q 3.0015043945312496 1.9451249999999998 3.0015043945312496 1.9376249999999997 L 3.0015043945312496 1.4478749999999998 Q 3.0015043945312496 1.4396249999999997 3.00600439453125 1.4347499999999997 Q 3.01050439453125 1.4298749999999996 3.01875439453125 1.4298749999999996 L 3.32850439453125 1.4298749999999996 Q 3.33675439453125 1.4298749999999996 3.3412543945312496 1.4347499999999997 Q 3.34575439453125 1.4396249999999997 3.34575439453125 1.4478749999999998 L 3.34575439453125 1.4763749999999995 Q 3.34575439453125 1.4846249999999996 3.3412543945312496 1.4891249999999996 Q 3.33675439453125 1.4936249999999998 3.32850439453125 1.4936249999999998 L 3.0735043945312497 1.4936249999999998 L 3.0735043945312497 1.6578749999999998 L 3.31200439453125 1.6578749999999998 Q 3.3202543945312497 1.6578749999999998 3.32475439453125 1.6627499999999997 Q 3.32925439453125 1.6676249999999997 3.32925439453125 1.6758749999999996 L 3.32925439453125 1.7036249999999997 Q 3.32925439453125 1.7111249999999998 3.32475439453125 1.7159999999999997 Q 3.3202543945312497 1.7208749999999997 3.31200439453125 1.7208749999999997 L 3.0735043945312497 1.7208749999999997 L 3.0735043945312497 1.8911249999999997 L 3.33450439453125 1.8911249999999997 Q 3.3427543945312497 1.8911249999999997 3.34725439453125 1.8956249999999997 Q 3.35175439453125 1.9001249999999996 3.35175439453125 1.9083749999999997 L 3.35175439453125 1.9376249999999997 Q 3.35175439453125 1.9451249999999998 3.34725439453125 1.9499999999999997 Q 3.3427543945312497 1.9548749999999997 3.33450439453125 1.9548749999999997 L 3.01875439453125 1.9548749999999997 M 3.7552459716796873 1.9548749999999997 Q 3.7477459716796875 1.9548749999999997 3.7428709716796873 1.9499999999999997 Q 3.7379959716796876 1.9451249999999998 3.7379959716796876 1.9376249999999997 L 3.7379959716796876 1.4966249999999997 L 3.5939959716796874 1.4966249999999997 Q 3.5864959716796876 1.4966249999999997 3.5816209716796874 1.4917499999999997 Q 3.576745971679687 1.4868749999999997 3.576745971679687 1.4793749999999997 L 3.576745971679687 1.4478749999999998 Q 3.576745971679687 1.4396249999999997 3.5816209716796874 1.4347499999999997 Q 3.5864959716796876 1.4298749999999996 3.5939959716796874 1.4298749999999996 L 3.9554959716796874 1.4298749999999996 Q 3.9637459716796872 1.4298749999999996 3.9686209716796874 1.4347499999999997 Q 3.9734959716796876 1.4396249999999997 3.9734959716796876 1.4478749999999998 L 3.9734959716796876 1.4793749999999997 Q 3.9734959716796876 1.4868749999999997 3.9686209716796874 1.4917499999999997 Q 3.9637459716796872 1.4966249999999997 3.9554959716796874 1.4966249999999997 L 3.8122459716796873 1.4966249999999997 L 3.8122459716796873 1.9376249999999997 Q 3.8122459716796873 1.9451249999999998 3.8073709716796875 1.9499999999999997 Q 3.8024959716796873 1.9548749999999997 3.7942459716796875 1.9548749999999997 L 3.7552459716796873 1.9548749999999997 M 4.0758555908203125 1.9548749999999997 Q 4.067605590820312 1.9548749999999997 4.063105590820313 1.9499999999999997 Q 4.058605590820313 1.9451249999999998 4.058605590820313 1.9376249999999997 L 4.058605590820313 1.4478749999999998 Q 4.058605590820313 1.4396249999999997 4.063105590820313 1.4347499999999997 Q 4.067605590820312 1.4298749999999996 4.0758555908203125 1.4298749999999996 L 4.114105590820312 1.4298749999999996 Q 4.122355590820312 1.4298749999999996 4.127230590820313 1.4347499999999997 Q 4.132105590820313 1.4396249999999997 4.132105590820313 1.4478749999999998 L 4.132105590820313 1.6548749999999997 L 4.390105590820313 1.6548749999999997 L 4.390105590820313 1.4478749999999998 Q 4.390105590820313 1.4396249999999997 4.394980590820312 1.4347499999999997 Q 4.399855590820312 1.4298749999999996 4.407355590820313 1.4298749999999996 L 4.445605590820312 1.4298749999999996 Q 4.453855590820313 1.4298749999999996 4.458730590820313 1.4347499999999997 Q 4.463605590820312 1.4396249999999997 4.463605590820312 1.4478749999999998 L 4.463605590820312 1.9376249999999997 Q 4.463605590820312 1.9451249999999998 4.458730590820313 1.9499999999999997 Q 4.453855590820313 1.9548749999999997 4.445605590820312 1.9548749999999997 L 4.407355590820313 1.9548749999999997 Q 4.399855590820312 1.9548749999999997 4.394980590820312 1.9499999999999997 Q 4.390105590820313 1.9451249999999998 4.390105590820313 1.9376249999999997 L 4.390105590820313 1.7223749999999998 L 4.132105590820313 1.7223749999999998 L 4.132105590820313 1.9376249999999997 Q 4.132105590820313 1.9451249999999998 4.127230590820313 1.9499999999999997 Q 4.122355590820312 1.9548749999999997 4.114105590820312 1.9548749999999997 L 4.0758555908203125 1.9548749999999997 M 4.612472534179687 1.9548749999999997 Q 4.604222534179687 1.9548749999999997 4.599722534179687 1.9499999999999997 Q 4.595222534179687 1.9451249999999998 4.595222534179687 1.9376249999999997 L 4.595222534179687 1.4478749999999998 Q 4.595222534179687 1.4396249999999997 4.599722534179687 1.4347499999999997 Q 4.604222534179687 1.4298749999999996 4.612472534179687 1.4298749999999996 L 4.922222534179687 1.4298749999999996 Q 4.930472534179687 1.4298749999999996 4.934972534179687 1.4347499999999997 Q 4.9394725341796875 1.4396249999999997 4.9394725341796875 1.4478749999999998 L 4.9394725341796875 1.4763749999999995 Q 4.9394725341796875 1.4846249999999996 4.934972534179687 1.4891249999999996 Q 4.930472534179687 1.4936249999999998 4.922222534179687 1.4936249999999998 L 4.667222534179687 1.4936249999999998 L 4.667222534179687 1.6578749999999998 L 4.905722534179687 1.6578749999999998 Q 4.913972534179687 1.6578749999999998 4.918472534179687 1.6627499999999997 Q 4.922972534179687 1.6676249999999997 4.922972534179687 1.6758749999999996 L 4.922972534179687 1.7036249999999997 Q 4.922972534179687 1.7111249999999998 4.918472534179687 1.7159999999999997 Q 4.913972534179687 1.7208749999999997 4.905722534179687 1.7208749999999997 L 4.667222534179687 1.7208749999999997 L 4.667222534179687 1.8911249999999997 L 4.928222534179687 1.8911249999999997 Q 4.936472534179687 1.8911249999999997 4.9409725341796875 1.8956249999999997 Q 4.945472534179687 1.9001249999999996 4.945472534179687 1.9083749999999997 L 4.945472534179687 1.9376249999999997 Q 4.945472534179687 1.9451249999999998 4.9409725341796875 1.9499999999999997 Q 4.936472534179687 1.9548749999999997 4.928222534179687 1.9548749999999997 L 4.612472534179687 1.9548749999999997 M 5.252982421874999 1.9548749999999997 Q 5.245482421875 1.9548749999999997 5.240607421875 1.9499999999999997 Q 5.235732421874999 1.9451249999999998 5.235732421874999 1.9376249999999997 L 5.235732421874999 1.4478749999999998 Q 5.235732421874999 1.4396249999999997 5.240607421875 1.4347499999999997 Q 5.245482421875 1.4298749999999996 5.252982421874999 1.4298749999999996 L 5.290482421875 1.4298749999999996 Q 5.299482421875 1.4298749999999996 5.303982421874999 1.4343749999999997 Q 5.3084824218749995 1.4388749999999997 5.309982421875 1.4418749999999996 L 5.468232421874999 1.7448749999999997 L 5.627982421875 1.4418749999999996 Q 5.629482421874999 1.4388749999999997 5.633607421874999 1.4343749999999997 Q 5.637732421875 1.4298749999999996 5.646732421875 1.4298749999999996 L 5.6834824218749995 1.4298749999999996 Q 5.691732421875 1.4298749999999996 5.696607421875 1.4347499999999997 Q 5.701482421874999 1.4396249999999997 5.701482421874999 1.4478749999999998 L 5.701482421874999 1.9376249999999997 Q 5.701482421874999 1.9451249999999998 5.696607421875 1.9499999999999997 Q 5.691732421875 1.9548749999999997 5.6834824218749995 1.9548749999999997 L 5.646732421875 1.9548749999999997 Q 5.639232421875 1.9548749999999997 5.634357421874999 1.9499999999999997 Q 5.629482421874999 1.9451249999999998 5.629482421874999 1.9376249999999997 L 5.629482421874999 1.5686249999999997 L 5.504232421875 1.8131249999999997 Q 5.501232421875 1.8206249999999997 5.4952324218749995 1.8247499999999997 Q 5.489232421874999 1.8288749999999996 5.480232421875 1.8288749999999996 L 5.456982421875 1.8288749999999996 Q 5.4472324218749995 1.8288749999999996 5.441982421874999 1.8247499999999997 Q 5.436732421875 1.8206249999999997 5.432982421875 1.8131249999999997 L 5.3069824218749995 1.5686249999999997 L 5.3069824218749995 1.9376249999999997 Q 5.3069824218749995 1.9451249999999998 5.302107421874999 1.9499999999999997 Q 5.297232421875 1.9548749999999997 5.289732421875 1.9548749999999997 L 5.252982421874999 1.9548749999999997 M 6.021362182617187 1.9623749999999998 Q 5.956862182617187 1.9623749999999998 5.911112182617187 1.9402499999999996 Q 5.865362182617187 1.9181249999999996 5.840612182617187 1.8719999999999997 Q 5.815862182617187 1.8258749999999997 5.812862182617187 1.7561249999999997 Q 5.812112182617187 1.7231249999999996 5.812112182617187 1.6927499999999998 Q 5.812112182617187 1.6623749999999997 5.812862182617187 1.6293749999999996 Q 5.815862182617187 1.5603749999999996 5.841737182617187 1.5142499999999997 Q 5.867612182617187 1.4681249999999997 5.913737182617187 1.4452499999999997 Q 5.959862182617187 1.4223749999999997 6.021362182617187 1.4223749999999997 Q 6.082112182617188 1.4223749999999997 6.1282371826171875 1.4452499999999997 Q 6.1743621826171875 1.4681249999999997 6.200612182617187 1.5142499999999997 Q 6.226862182617187 1.5603749999999996 6.229112182617187 1.6293749999999996 Q 6.230612182617187 1.6623749999999997 6.230612182617187 1.6927499999999998 Q 6.230612182617187 1.7231249999999996 6.229112182617187 1.7561249999999997 Q 6.226862182617187 1.8258749999999997 6.201737182617187 1.8719999999999997 Q 6.176612182617188 1.9181249999999996 6.130862182617188 1.9402499999999996 Q 6.085112182617187 1.9623749999999998 6.021362182617187 1.9623749999999998 M 6.021362182617187 1.8986249999999998 Q 6.078362182617187 1.8986249999999998 6.114737182617187 1.8641249999999996 Q 6.1511121826171875 1.8296249999999996 6.154112182617187 1.7523749999999998 Q 6.155612182617187 1.7186249999999996 6.155612182617187 1.6919999999999997 Q 6.155612182617187 1.6653749999999996 6.154112182617187 1.6323749999999997 Q 6.152612182617188 1.5806249999999997 6.134987182617187 1.5483749999999996 Q 6.117362182617187 1.5161249999999997 6.088112182617187 1.5011249999999996 Q 6.058862182617188 1.4861249999999997 6.021362182617187 1.4861249999999997 Q 5.983862182617187 1.4861249999999997 5.954612182617187 1.5011249999999996 Q 5.925362182617187 1.5161249999999997 5.907737182617187 1.5483749999999996 Q 5.890112182617187 1.5806249999999997 5.887862182617187 1.6323749999999997 Q 5.887112182617187 1.6653749999999996 5.887112182617187 1.6919999999999997 Q 5.887112182617187 1.7186249999999996 5.887862182617187 1.7523749999999998 Q 5.890862182617187 1.8296249999999996 5.927612182617187 1.8641249999999996 Q 5.9643621826171875 1.8986249999999998 6.021362182617187 1.8986249999999998 M 6.482223999023438 1.9548749999999997 Q 6.470973999023437 1.9548749999999997 6.464598999023437 1.9496249999999997 Q 6.458223999023438 1.9443749999999997 6.454473999023437 1.9353749999999996 L 6.287223999023437 1.4531249999999996 Q 6.285723999023437 1.4486249999999998 6.285723999023437 1.4448749999999997 Q 6.285723999023437 1.4388749999999997 6.290223999023437 1.4343749999999997 Q 6.294723999023438 1.4298749999999996 6.300723999023437 1.4298749999999996 L 6.3397239990234375 1.4298749999999996 Q 6.348723999023437 1.4298749999999996 6.353598999023437 1.4347499999999997 Q 6.358473999023437 1.4396249999999997 6.359973999023437 1.4433749999999996 L 6.506223999023438 1.8686249999999998 L 6.653223999023437 1.4433749999999996 Q 6.654723999023437 1.4396249999999997 6.659223999023437 1.4347499999999997 Q 6.663723999023437 1.4298749999999996 6.672723999023437 1.4298749999999996 L 6.711723999023437 1.4298749999999996 Q 6.717723999023438 1.4298749999999996 6.722598999023437 1.4343749999999997 Q 6.727473999023437 1.4388749999999997 6.727473999023437 1.4448749999999997 Q 6.727473999023437 1.4486249999999998 6.725973999023437 1.4531249999999996 L 6.557973999023437 1.9353749999999996 Q 6.554973999023437 1.9443749999999997 6.5485989990234375 1.9496249999999997 Q 6.542223999023437 1.9548749999999997 6.530973999023438 1.9548749999999997 L 6.482223999023438 1.9548749999999997 M 6.835870971679687 1.9548749999999997 Q 6.827620971679687 1.9548749999999997 6.823120971679687 1.9499999999999997 Q 6.818620971679687 1.9451249999999998 6.818620971679687 1.9376249999999997 L 6.818620971679687 1.4478749999999998 Q 6.818620971679687 1.4396249999999997 6.823120971679687 1.4347499999999997 Q 6.827620971679687 1.4298749999999996 6.835870971679687 1.4298749999999996 L 7.145620971679687 1.4298749999999996 Q 7.153870971679687 1.4298749999999996 7.1583709716796875 1.4347499999999997 Q 7.162870971679688 1.4396249999999997 7.162870971679688 1.4478749999999998 L 7.162870971679688 1.4763749999999995 Q 7.162870971679688 1.4846249999999996 7.1583709716796875 1.4891249999999996 Q 7.153870971679687 1.4936249999999998 7.145620971679687 1.4936249999999998 L 6.890620971679687 1.4936249999999998 L 6.890620971679687 1.6578749999999998 L 7.129120971679687 1.6578749999999998 Q 7.137370971679688 1.6578749999999998 7.141870971679687 1.6627499999999997 Q 7.146370971679687 1.6676249999999997 7.146370971679687 1.6758749999999996 L 7.146370971679687 1.7036249999999997 Q 7.146370971679687 1.7111249999999998 7.141870971679687 1.7159999999999997 Q 7.137370971679688 1.7208749999999997 7.129120971679687 1.7208749999999997 L 6.890620971679687 1.7208749999999997 L 6.890620971679687 1.8911249999999997 L 7.151620971679687 1.8911249999999997 Q 7.159870971679688 1.8911249999999997 7.164370971679688 1.8956249999999997 Q 7.168870971679687 1.9001249999999996 7.168870971679687 1.9083749999999997 L 7.168870971679687 1.9376249999999997 Q 7.168870971679687 1.9451249999999998 7.164370971679688 1.9499999999999997 Q 7.159870971679688 1.9548749999999997 7.151620971679687 1.9548749999999997 L 6.835870971679687 1.9548749999999997 M 7.291509521484374 1.9548749999999997 Q 7.284009521484375 1.9548749999999997 7.279134521484375 1.9499999999999997 Q 7.274259521484375 1.9451249999999998 7.274259521484375 1.9376249999999997 L 7.274259521484375 1.4478749999999998 Q 7.274259521484375 1.4396249999999997 7.279134521484375 1.4347499999999997 Q 7.284009521484375 1.4298749999999996 7.291509521484374 1.4298749999999996 L 7.329009521484375 1.4298749999999996 Q 7.338009521484375 1.4298749999999996 7.3425095214843745 1.4343749999999997 Q 7.347009521484375 1.4388749999999997 7.348509521484375 1.4418749999999996 L 7.5067595214843745 1.7448749999999997 L 7.666509521484375 1.4418749999999996 Q 7.668009521484374 1.4388749999999997 7.672134521484375 1.4343749999999997 Q 7.676259521484375 1.4298749999999996 7.685259521484375 1.4298749999999996 L 7.722009521484375 1.4298749999999996 Q 7.730259521484375 1.4298749999999996 7.735134521484375 1.4347499999999997 Q 7.7400095214843745 1.4396249999999997 7.7400095214843745 1.4478749999999998 L 7.7400095214843745 1.9376249999999997 Q 7.7400095214843745 1.9451249999999998 7.735134521484375 1.9499999999999997 Q 7.730259521484375 1.9548749999999997 7.722009521484375 1.9548749999999997 L 7.685259521484375 1.9548749999999997 Q 7.677759521484375 1.9548749999999997 7.672884521484375 1.9499999999999997 Q 7.668009521484374 1.9451249999999998 7.668009521484374 1.9376249999999997 L 7.668009521484374 1.5686249999999997 L 7.542759521484375 1.8131249999999997 Q 7.539759521484375 1.8206249999999997 7.533759521484375 1.8247499999999997 Q 7.527759521484374 1.8288749999999996 7.518759521484375 1.8288749999999996 L 7.495509521484375 1.8288749999999996 Q 7.485759521484375 1.8288749999999996 7.480509521484374 1.8247499999999997 Q 7.475259521484375 1.8206249999999997 7.471509521484375 1.8131249999999997 L 7.345509521484375 1.5686249999999997 L 7.345509521484375 1.9376249999999997 Q 7.345509521484375 1.9451249999999998 7.3406345214843745 1.9499999999999997 Q 7.335759521484375 1.9548749999999997 7.328259521484375 1.9548749999999997 L 7.291509521484374 1.9548749999999997 M 7.888139282226562 1.9548749999999997 Q 7.8798892822265625 1.9548749999999997 7.875389282226562 1.9499999999999997 Q 7.870889282226562 1.9451249999999998 7.870889282226562 1.9376249999999997 L 7.870889282226562 1.4478749999999998 Q 7.870889282226562 1.4396249999999997 7.875389282226562 1.4347499999999997 Q 7.8798892822265625 1.4298749999999996 7.888139282226562 1.4298749999999996 L 8.197889282226562 1.4298749999999996 Q 8.206139282226562 1.4298749999999996 8.210639282226563 1.4347499999999997 Q 8.215139282226563 1.4396249999999997 8.215139282226563 1.4478749999999998 L 8.215139282226563 1.4763749999999995 Q 8.215139282226563 1.4846249999999996 8.210639282226563 1.4891249999999996 Q 8.206139282226562 1.4936249999999998 8.197889282226562 1.4936249999999998 L 7.942889282226562 1.4936249999999998 L 7.942889282226562 1.6578749999999998 L 8.181389282226561 1.6578749999999998 Q 8.189639282226562 1.6578749999999998 8.194139282226562 1.6627499999999997 Q 8.198639282226562 1.6676249999999997 8.198639282226562 1.6758749999999996 L 8.198639282226562 1.7036249999999997 Q 8.198639282226562 1.7111249999999998 8.194139282226562 1.7159999999999997 Q 8.189639282226562 1.7208749999999997 8.181389282226561 1.7208749999999997 L 7.942889282226562 1.7208749999999997 L 7.942889282226562 1.8911249999999997 L 8.203889282226562 1.8911249999999997 Q 8.212139282226563 1.8911249999999997 8.216639282226563 1.8956249999999997 Q 8.221139282226563 1.9001249999999996 8.221139282226563 1.9083749999999997 L 8.221139282226563 1.9376249999999997 Q 8.221139282226563 1.9451249999999998 8.216639282226563 1.9499999999999997 Q 8.212139282226563 1.9548749999999997 8.203889282226562 1.9548749999999997 L 7.888139282226562 1.9548749999999997 M 8.343777832031249 1.9548749999999997 Q 8.335527832031248 1.9548749999999997 8.33102783203125 1.9499999999999997 Q 8.32652783203125 1.9451249999999998 8.32652783203125 1.9376249999999997 L 8.32652783203125 1.4478749999999998 Q 8.32652783203125 1.4396249999999997 8.33102783203125 1.4347499999999997 Q 8.335527832031248 1.4298749999999996 8.343777832031249 1.4298749999999996 L 8.37827783203125 1.4298749999999996 Q 8.387277832031248 1.4298749999999996 8.391777832031249 1.4339999999999997 Q 8.396277832031249 1.4381249999999997 8.397027832031249 1.4403749999999997 L 8.64602783203125 1.8228749999999998 L 8.64602783203125 1.4478749999999998 Q 8.64602783203125 1.4396249999999997 8.65052783203125 1.4347499999999997 Q 8.65502783203125 1.4298749999999996 8.663277832031248 1.4298749999999996 L 8.69927783203125 1.4298749999999996 Q 8.70752783203125 1.4298749999999996 8.712402832031248 1.4347499999999997 Q 8.717277832031249 1.4396249999999997 8.717277832031249 1.4478749999999998 L 8.717277832031249 1.9368749999999997 Q 8.717277832031249 1.9443749999999997 8.712402832031248 1.9496249999999997 Q 8.70752783203125 1.9548749999999997 8.70002783203125 1.9548749999999997 L 8.664027832031248 1.9548749999999997 Q 8.65577783203125 1.9548749999999997 8.65165283203125 1.9503749999999997 Q 8.64752783203125 1.9458749999999998 8.64602783203125 1.9443749999999997 L 8.397777832031249 1.5656249999999998 L 8.397777832031249 1.9376249999999997 Q 8.397777832031249 1.9451249999999998 8.392902832031249 1.9499999999999997 Q 8.388027832031248 1.9548749999999997 8.379777832031248 1.9548749999999997 L 8.343777832031249 1.9548749999999997 M 8.980908325195312 1.9548749999999997 Q 8.973408325195312 1.9548749999999997 8.968533325195311 1.9499999999999997 Q 8.963658325195311 1.9451249999999998 8.963658325195311 1.9376249999999997 L 8.963658325195311 1.4966249999999997 L 8.819658325195311 1.4966249999999997 Q 8.81215832519531 1.4966249999999997 8.80728332519531 1.4917499999999997 Q 8.802408325195312 1.4868749999999997 8.802408325195312 1.4793749999999997 L 8.802408325195312 1.4478749999999998 Q 8.802408325195312 1.4396249999999997 8.80728332519531 1.4347499999999997 Q 8.81215832519531 1.4298749999999996 8.819658325195311 1.4298749999999996 L 9.181158325195312 1.4298749999999996 Q 9.189408325195311 1.4298749999999996 9.194283325195311 1.4347499999999997 Q 9.199158325195311 1.4396249999999997 9.199158325195311 1.4478749999999998 L 9.199158325195311 1.4793749999999997 Q 9.199158325195311 1.4868749999999997 9.194283325195311 1.4917499999999997 Q 9.189408325195311 1.4966249999999997 9.181158325195312 1.4966249999999997 L 9.037908325195312 1.4966249999999997 L 9.037908325195312 1.9376249999999997 Q 9.037908325195312 1.9451249999999998 9.033033325195312 1.9499999999999997 Q 9.028158325195312 1.9548749999999997 9.019908325195312 1.9548749999999997 L 8.980908325195312 1.9548749999999997" fill="#ffffff" fill-rule="nonzero"></path></g></g><defs><clipPath id="SvgjsClipPath4162"><path d=" M 9.617892944335937 -1.072852697066625 h 3.556377839875251 v 4.1005803941332495 h -3.556377839875251 Z"></path></clipPath><clipPath id="b681acd2d-61d5-4f6e-bd5d-5a7213a32c856c972a9e-e888-4155-ab0d-7bc2ce73bf8b"><path d=" M 9.607144405789285 -1.0835882970276551 L 13.18501043181324 -1.0835882970276551 L 13.18501043181324 3.0384762356132766 L 9.607144405789285 3.0384762356132766 Z"></path></clipPath></defs></svg>